<svg xmlns="http://www.w3.org/2000/svg" xmlns:xlink="http://www.w3.org/1999/xlink" width="8.636em" height="1.816em" viewBox="0.598 -14.481 102.865 21.631" style="vertical-align:-.600321em"><defs><path id="SSnG_v" d="m1.513-2.024.243.648-.655.898C1.028-.38.95-.354.904-.354a.494.494 0 0 1-.19-.039.534.534 0 0 0-.203-.04c-.157 0-.269.105-.269.25 0 .17.25.249.413.249.236 0 .406-.099.714-.511l.478-.656.275.8c.092.262.164.367.413.367.256 0 .577-.125.8-.466a.23.23 0 0 0-.171-.124c-.183.216-.269.269-.347.269-.066 0-.112-.086-.17-.243l-.38-1.055.543-.733a.446.446 0 0 1 .328-.177.39.39 0 0 1 .21.065c.045.04.157.066.229.066.098 0 .222-.131.222-.282 0-.164-.183-.262-.347-.262-.353 0-.583.112-.923.577l-.354.471-.197-.576c-.124-.34-.196-.472-.38-.472-.17 0-.7.269-.956.44.007.071.033.156.092.202.085-.033.32-.137.465-.137.085 0 .157.013.196.072.027.052.079.163.118.275Z"/><path id="SSnG_w" d="M3.197-2.247c.046-.21.17-.629.17-.629-.118.04-.242.066-.373.066-.085 0-.203-.007-.236-.013-.013.21-.079.53-.111.714L2.273-.65c-.196.217-.576.433-.93.433-.236 0-.315-.144-.315-.367 0-.111.02-.242.053-.38l.465-1.913a.948.948 0 0 1-.334.066 1.64 1.64 0 0 1-.216-.013v.045c0 .204-.072.498-.118.669L.504-.734c-.039.125-.052.275-.072.348C.406-.25.367-.131.341.046.144.858.052 1.199-.092 1.422l.053.117.576-.203C.787.832.825.046.877 0a.567.567 0 0 0 .302.079c.393 0 .734-.184 1.055-.472a.341.341 0 0 0-.053.157c0 .21.145.315.335.315.275 0 .543-.164.792-.505l-.13-.092c-.165.223-.256.289-.348.289-.066 0-.085-.04-.085-.125 0-.091.033-.242.085-.458l.367-1.435Z"/><path id="SSnG_x" d="M.518-.917c0 .603.393.996 1.146.996 1.055 0 1.67-.859 1.67-1.54 0-.42-.222-.74-.51-.904h.903c.256 0 .393-.144.577-.367L4.25-2.81H2.64C1.061-2.81.518-1.618.518-.917Zm1.978-1.448c.21.236.334.459.334.786 0 .642-.42 1.435-1.048 1.435-.537 0-.734-.413-.734-.806 0-.386.275-1.415 1.448-1.415Z"/><path id="SSnG_d" d="M2.581 0v-.098c-.518-.007-.622-.072-.622-.387v-3.93l-.053-.013-1.179.596v.092c.079-.033.15-.06.177-.073a.94.94 0 0 1 .295-.072c.137 0 .196.099.196.308v2.968c0 .216-.052.367-.157.426-.098.059-.19.078-.465.085V0h1.808Z"/><path id="SSnG_e" d="M3.112-.897 3.026-.93c-.242.373-.327.432-.622.432H.84l1.1-1.153c.583-.609.839-1.107.839-1.618 0-.655-.531-1.16-1.212-1.16-.36 0-.701.145-.944.407-.21.223-.308.432-.419.897l.138.033c.262-.642.497-.852.95-.852.55 0 .923.374.923.924 0 .511-.301 1.12-.851 1.703L.197-.079V0H2.75l.36-.897Z"/><path id="SSnG_a" d="m2.778-1.028-.105-.046c-.315.498-.596.688-1.016.688-.36 0-.635-.17-.825-.525C.7-1.166.649-1.395.635-1.815h2.018c-.052-.425-.118-.615-.282-.825a1.075 1.075 0 0 0-.838-.373c-.812 0-1.37.655-1.37 1.611C.164-.498.636.066 1.39.066c.629 0 1.113-.387 1.389-1.094Zm-.793-.996H.649c.072-.518.294-.754.694-.754s.557.184.642.754Z"/><path id="SSnG_h" d="M1.642-3.406c-.175.995-.27 1.52-.358 2.174-.114.856-.28 2.263-.594 2.76-.096.149-.27.263-.402.263-.14 0-.174-.088-.244-.184-.07-.105-.236-.244-.402-.244-.245 0-.323.166-.323.314 0 .192.21.402.803.402.358 0 .743-.175 1.013-.55.245-.341.437-1.005.778-2.664.14-.682.28-1.39.41-2.123l.027-.148h.812c.078 0 .21-.035.227-.105 0 0 .044-.184.044-.192 0-.027-.018-.044-.062-.044h-.96l.096-.498c.078-.323.157-.629.262-.865.218-.541.576-.698.725-.698.2 0 .297.043.34.227.035.192.105.428.402.428.27 0 .332-.21.332-.297 0-.35-.384-.647-1.004-.647-.245 0-.786.131-1.145.56-.305.358-.532 1.03-.69 1.79l-.576.026c-.166.009-.227.079-.245.149-.008.026-.035.13-.035.148s.027.018.053.018h.716Z"/><path id="SSnG_i" d="m1.878-2.699.306.865L1.37-.638c-.087.131-.183.166-.244.166A.576.576 0 0 1 .89-.524a.627.627 0 0 0-.253-.052.321.321 0 0 0-.332.331c0 .228.305.332.506.332.297 0 .507-.13.891-.68l.603-.874.34 1.065c.114.35.201.49.498.49.306 0 .69-.167.961-.62a.293.293 0 0 0-.21-.167c-.227.288-.34.358-.436.358-.079 0-.14-.113-.21-.323L2.778-2.07l.663-.978c.14-.201.35-.236.41-.236.07 0 .184.026.263.087.061.053.2.088.288.088.122 0 .28-.175.28-.376 0-.218-.236-.35-.437-.35-.437 0-.725.15-1.153.77l-.437.628-.244-.769c-.149-.454-.245-.628-.463-.628-.201 0-.847.358-1.153.585.009.096.043.21.113.27.105-.043.393-.183.577-.183.105 0 .192.018.244.096.035.07.096.219.149.367Z"/><path id="SSnG_s" d="M5.162-3.747h-3.31c-.42 0-.891.734-1.075 1.258l.149.026c.262-.498.568-.69.97-.69h.148C1.494-.777 1.039-.63.794-.576c-.218.043-.34.296-.357.384-.009.035-.018.061-.018.096 0 .157.123.2.21.2.795 0 1.345-1.143 1.834-3.257h1.005A100.365 100.365 0 0 0 2.9-.803a2.06 2.06 0 0 0-.07.454c0 .323.166.454.568.454.375 0 .847-.446 1.091-.716l-.113-.14C4-.42 3.66-.358 3.555-.358c-.122 0-.175-.079-.175-.236 0-.087.018-.2.053-.332.27-1.205.445-1.913.541-2.227h.568c.297 0 .48-.192.69-.49l-.07-.104Z"/><path id="SSnG_p" d="M.646-1.223c0 .804.48 1.328 1.39 1.328 1.274 0 2.008-1.144 2.008-2.053 0-.559-.253-.987-.585-1.205H4.55c.305 0 .48-.192.698-.49l-.07-.104H3.223C1.31-3.747.646-2.157.646-1.223Zm2.402-1.93c.262.314.42.611.42 1.048 0 .856-.525 1.913-1.31 1.913-.673 0-.909-.55-.909-1.074 0-.516.34-1.887 1.8-1.887Z"/><path id="SSnG_b" d="M3.76-1.5v-.367H.406v.367H3.76Z"/><path id="SSnG_c" d="M4.802-.367h-.38l-1.487 5.13L1.65 2.03l-1.258.668.079.137.7-.262 1.723 3.61 1.907-6.55Z"/><path id="SSnG_f" d="M1.932-4.697C.982-4.08.314-3.02.314-1.684c0 1.219.695 2.45 1.599 3.007l.078-.105C1.127.538.878-.255.878-1.703c0-1.454.268-2.208 1.113-2.89l-.059-.104Z"/><path id="SSnG_g" d="m.249-4.697-.059.105c.845.681 1.114 1.435 1.114 2.889 0 1.448-.25 2.24-1.114 2.921l.079.105C1.173.766 1.867-.465 1.867-1.684c0-1.336-.668-2.397-1.618-3.013Z"/><path id="SSnG_n" d="M6.575-3.93v-.667H.476v.667h6.099Zm0 2.417v-.667H.476v.667h6.099Z"/><use id="SSnG_t" xlink:href="#SSnG_a" transform="scale(1.81818)"/><use id="SSnG_u" xlink:href="#SSnG_b" transform="scale(1.33333)"/><use id="SSnG_q" xlink:href="#SSnG_c" transform="scale(1.33333)"/><use id="SSnG_o" xlink:href="#SSnG_d" transform="scale(1.33333)"/><use id="SSnG_r" xlink:href="#SSnG_e" transform="scale(1.33333)"/><use id="SSnG_k" xlink:href="#SSnG_f" transform="scale(1.81818)"/><use id="SSnG_m" xlink:href="#SSnG_g" transform="scale(1.81818)"/><use id="SSnG_j" xlink:href="#SSnG_h" transform="scale(1.36364)"/><use id="SSnG_l" xlink:href="#SSnG_i" transform="scale(1.36364)"/></defs><use x=".598" xlink:href="#SSnG_j"/><use x="7.448" xlink:href="#SSnG_k"/><use x="11.549" xlink:href="#SSnG_l"/><use x="18.297" xlink:href="#SSnG_m"/><use x="26.197" xlink:href="#SSnG_n"/><use x="46.069" y="-4.71" xlink:href="#SSnG_o"/><path d="M37.791-3.407h20.94v.669h-20.94z"/><use x="37.572" y="6.247" xlink:href="#SSnG_p"/><use x="42.841" y="-1.095" xlink:href="#SSnG_q"/><path d="M49.004-1.582h9.727v.487h-9.727z"/><use x="49.004" y="6.247" xlink:href="#SSnG_r"/><use x="53.3" y="6.247" xlink:href="#SSnG_s"/><use x="59.927" xlink:href="#SSnG_t"/><use x="65.235" y="-4.937" xlink:href="#SSnG_u"/><use x="72.006" y="-8.392" xlink:href="#SSnG_d"/><path d="M72.006-7.436h3.288v.491h-3.288z"/><use x="72.006" y="-1.913" xlink:href="#SSnG_e"/><use x="77.087" y="-4.136" xlink:href="#SSnG_k"/><use x="82.545" y="-9.462" xlink:href="#SSnG_v"/><use x="86.552" y="-9.462" xlink:href="#SSnG_b"/><use x="90.833" y="-9.462" xlink:href="#SSnG_w"/><path d="M82.742-7.436h11.671v.491H82.742z"/><use x="86.334" y="-1.913" xlink:href="#SSnG_x"/><use x="95.609" y="-4.136" xlink:href="#SSnG_m"/><use x="100.187" y="-10.056" xlink:href="#SSnG_e"/></svg>
